<?xml version="1.0" encoding="UTF-8"?>
<svg id="Capa_1" data-name="Capa 1" xmlns="http://www.w3.org/2000/svg" viewBox="0 0 223.2 83.52">
  <defs>
    <style>
      .cls-1 {
        fill: #31b4e7;
      }
    </style>
  </defs>
  <g>
    <path class="cls-1" d="m216.72,72.12c-.64,1.44-1.36,2.78-2.16,4.02-.8,1.24-1.96,2.18-3.48,2.82-1.52.72-3.04,1.26-4.56,1.62-1.52.36-3.56.54-6.12.54-4.64,0-8.82-1.22-12.54-3.66-3.72-2.44-6.66-6.52-8.82-12.24-1.43-3.79-2.38-8.51-2.86-14.12h-19.08c.85,5.09,2.44,9.62,4.78,13.58,3.68,6.24,8.66,10.94,14.94,14.1,6.28,3.16,13.3,4.74,21.06,4.74,4.96,0,9.52-.56,13.68-1.68,4.16-1.12,7.92-2.56,11.28-4.32l.36-17.16h-1.2l-5.28,11.76Z"/>
    <path class="cls-1" d="m176.68,28.42c.57-3.84,1.41-7.18,2.54-10,2.28-5.72,5.32-9.82,9.12-12.3,3.8-2.48,8.02-3.72,12.66-3.72,1.76,0,3.22.14,4.38.42,1.16.28,2.34.7,3.54,1.26,1.44.64,2.64,1.58,3.6,2.82.96,1.24,1.84,2.62,2.64,4.14l6,9.6h1.2l-.48-14.76c-3.36-1.84-6.96-3.28-10.8-4.32-3.84-1.04-8.04-1.56-12.6-1.56-5.68,0-11.06.88-16.14,2.64-5.08,1.76-9.56,4.4-13.44,7.92-3.88,3.52-6.94,7.88-9.18,13.08-.65,1.52-1.2,3.12-1.66,4.78h18.63Z"/>
  </g>
  <g>
    <path class="cls-1" d="m117.72,28.42l6-16.66-.12,16.66h17.88V10.32c0-1.6.28-2.9.84-3.9.56-1,1.6-1.78,3.12-2.34l1.92-.72v-1.2h-23.64l-9.44,26.26h3.44Z"/>
    <path class="cls-1" d="m63.42,7.2c.36.96.54,2.24.54,3.84v17.38h2.71l-.19-15.82,6.02,15.82h18.18l-10.04-26.26h-23.16v1.2l3.12,1.44c1.52.64,2.46,1.44,2.82,2.4Z"/>
    <path class="cls-1" d="m142.08,76.8c-.4-.88-.6-2.12-.6-3.72v-21.98h-18v21.98c0,1.6-.2,2.84-.6,3.72-.4.88-1.36,1.64-2.88,2.28l-2.52,1.08v1.2h29.88v-1.2l-2.4-1.08c-1.52-.64-2.48-1.4-2.88-2.28Z"/>
    <path class="cls-1" d="m67.62,76.98c-.52-1.08-.78-2.5-.78-4.26v-21.62h-2.88v21.38c0,3.68-1.36,5.96-4.08,6.84l-2.4.84v1.2h15.84v-1.2l-2.64-.84c-1.52-.48-2.54-1.26-3.06-2.34Z"/>
    <polygon class="cls-1" points="106.13 51.1 102.84 60.24 99.35 51.1 81.13 51.1 92.64 81.36 98.64 81.36 109.54 51.1 106.13 51.1"/>
  </g>
  <g>
    <path class="cls-1" d="m22.92,10.8c.13,6.45.27,12.31.4,17.62h18.08V10.44c0-1.68.26-2.98.78-3.9.52-.92,1.5-1.66,2.94-2.22l2.64-.96v-1.2h-31.44v1.2l2.76.96c2.56.88,3.84,3.04,3.84,6.48Z"/>
    <path class="cls-1" d="m23.91,51.1c.06,3.15.09,5.96.09,8.42,0,4.4-.1,8.14-.3,11.22-.2,3.08-.54,5.42-1.02,7.02-.24.72-.66,1.08-1.26,1.08s-1.1-.28-1.5-.84l-2.16-3.72c-1.36-2.24-2.84-3.82-4.44-4.74-1.6-.92-3.44-1.38-5.52-1.38s-3.9.6-5.46,1.8c-1.56,1.2-2.34,2.92-2.34,5.16,0,2.56,1.06,4.6,3.18,6.12,2.12,1.52,5.14,2.28,9.06,2.28,5.36,0,10.3-1.42,14.82-4.26,4.52-2.84,7.78-6.94,9.78-12.3,1.6-3.76,2.76-8.2,3.48-13.32.11-.81.22-1.66.31-2.54h-16.72Z"/>
  </g>
</svg>