<?xml version="1.0" encoding="utf-8"?>
<!-- Generator: Adobe Illustrator 27.3.1, SVG Export Plug-In . SVG Version: 6.00 Build 0)  -->
<svg version="1.1" id="Capa_1" xmlns="http://www.w3.org/2000/svg" xmlns:xlink="http://www.w3.org/1999/xlink" x="0px" y="0px"
	 viewBox="0 0 223.2 83.52" style="enable-background:new 0 0 223.2 83.52;" xml:space="preserve">
<style type="text/css">
	.st0{fill:#31B4E7;}
</style>
<g>
	<g>
		<path class="st0" d="M216.72,72.12c-0.64,1.44-1.36,2.78-2.16,4.02s-1.96,2.18-3.48,2.82c-1.52,0.72-3.04,1.26-4.56,1.62
			s-3.56,0.54-6.12,0.54c-4.64,0-8.82-1.22-12.54-3.66s-6.66-6.52-8.82-12.24c-1.43-3.79-2.38-8.51-2.86-14.12H157.1
			c0.85,5.09,2.44,9.62,4.78,13.58c3.68,6.24,8.66,10.94,14.94,14.1c6.28,3.16,13.3,4.74,21.06,4.74c4.96,0,9.52-0.56,13.68-1.68
			c4.16-1.12,7.92-2.56,11.28-4.32l0.36-17.16H222C222,60.36,216.72,72.12,216.72,72.12z"/>
		<path class="st0" d="M176.68,28.42c0.57-3.84,1.41-7.18,2.54-10c2.28-5.72,5.32-9.82,9.12-12.3c3.8-2.48,8.02-3.72,12.66-3.72
			c1.76,0,3.22,0.14,4.38,0.42s2.34,0.7,3.54,1.26c1.44,0.64,2.64,1.58,3.6,2.82s1.84,2.62,2.64,4.14l6,9.6h1.2l-0.48-14.76
			c-3.36-1.84-6.96-3.28-10.8-4.32S203.04,0,198.48,0c-5.68,0-11.06,0.88-16.14,2.64s-9.56,4.4-13.44,7.92s-6.94,7.88-9.18,13.08
			c-0.65,1.52-1.2,3.12-1.66,4.78H176.68L176.68,28.42z"/>
	</g>
	<g>
		<path class="st0" d="M117.72,28.42l6-16.66l-0.12,16.66h17.88v-18.1c0-1.6,0.28-2.9,0.84-3.9s1.6-1.78,3.12-2.34l1.92-0.72v-1.2
			h-23.64l-9.44,26.26H117.72L117.72,28.42z"/>
		<path class="st0" d="M63.42,7.2c0.36,0.96,0.54,2.24,0.54,3.84v17.38h2.71L66.48,12.6l6.02,15.82h18.18L80.64,2.16H57.48v1.2
			L60.6,4.8C62.12,5.44,63.06,6.24,63.42,7.2z"/>
		<path class="st0" d="M142.08,76.8c-0.4-0.88-0.6-2.12-0.6-3.72V51.1h-18v21.98c0,1.6-0.2,2.84-0.6,3.72
			c-0.4,0.88-1.36,1.64-2.88,2.28l-2.52,1.08v1.2h29.88v-1.2l-2.4-1.08C143.44,78.44,142.48,77.68,142.08,76.8z"/>
		<path class="st0" d="M67.62,76.98c-0.52-1.08-0.78-2.5-0.78-4.26V51.1h-2.88v21.38c0,3.68-1.36,5.96-4.08,6.84l-2.4,0.84v1.2
			h15.84v-1.2l-2.64-0.84C69.16,78.84,68.14,78.06,67.62,76.98z"/>
		<polygon class="st0" points="106.13,51.1 102.84,60.24 99.35,51.1 81.13,51.1 92.64,81.36 98.64,81.36 109.54,51.1 		"/>
	</g>
	<g>
		<path class="st0" d="M22.92,10.8c0.13,6.45,0.27,12.31,0.4,17.62H41.4V10.44c0-1.68,0.26-2.98,0.78-3.9s1.5-1.66,2.94-2.22
			l2.64-0.96v-1.2H16.32v1.2l2.76,0.96C21.64,5.2,22.92,7.36,22.92,10.8z"/>
		<path class="st0" d="M23.91,51.1c0.06,3.15,0.09,5.96,0.09,8.42c0,4.4-0.1,8.14-0.3,11.22c-0.2,3.08-0.54,5.42-1.02,7.02
			c-0.24,0.72-0.66,1.08-1.26,1.08s-1.1-0.28-1.5-0.84l-2.16-3.72c-1.36-2.24-2.84-3.82-4.44-4.74s-3.44-1.38-5.52-1.38
			s-3.9,0.6-5.46,1.8C0.78,71.16,0,72.88,0,75.12c0,2.56,1.06,4.6,3.18,6.12c2.12,1.52,5.14,2.28,9.06,2.28
			c5.36,0,10.3-1.42,14.82-4.26c4.52-2.84,7.78-6.94,9.78-12.3c1.6-3.76,2.76-8.2,3.48-13.32c0.11-0.81,0.22-1.66,0.31-2.54
			C40.63,51.1,23.91,51.1,23.91,51.1z"/>
	</g>
</g>
<g>
	<path class="st0" d="M4.55,42.1c0.11,0.08,0.27,0.16,0.49,0.23c0.22,0.08,0.48,0.12,0.78,0.12s0.53-0.05,0.71-0.14
		c0.18-0.1,0.32-0.24,0.42-0.44c0.1-0.2,0.16-0.44,0.2-0.75c0.04-0.3,0.05-0.66,0.05-1.08v-3.73h1.13v3.58c0,0.52-0.03,1-0.08,1.44
		c-0.06,0.44-0.17,0.81-0.33,1.14c-0.17,0.32-0.42,0.57-0.75,0.74s-0.77,0.26-1.33,0.26c-0.33,0-0.62-0.04-0.87-0.11
		s-0.49-0.18-0.7-0.33L4.55,42.1L4.55,42.1z"/>
	<path class="st0" d="M19.11,43.46c-0.51,0-0.98-0.1-1.39-0.3s-0.77-0.47-1.07-0.82c-0.3-0.34-0.53-0.73-0.69-1.16
		c-0.16-0.43-0.25-0.87-0.25-1.33s0.09-0.93,0.26-1.35c0.17-0.43,0.41-0.81,0.72-1.15s0.67-0.6,1.08-0.8s0.87-0.29,1.36-0.29
		s0.97,0.1,1.38,0.31s0.77,0.48,1.07,0.83c0.3,0.35,0.53,0.73,0.69,1.16s0.25,0.86,0.25,1.31c0,0.47-0.08,0.92-0.25,1.35
		s-0.41,0.81-0.71,1.15c-0.31,0.34-0.67,0.6-1.08,0.79c-0.42,0.19-0.87,0.29-1.36,0.29L19.11,43.46z M16.85,39.86
		c0,0.33,0.05,0.66,0.16,0.97s0.26,0.59,0.46,0.83c0.2,0.24,0.43,0.44,0.71,0.58s0.59,0.21,0.94,0.21s0.68-0.07,0.96-0.22
		c0.28-0.15,0.51-0.35,0.7-0.6s0.33-0.53,0.44-0.84c0.1-0.31,0.15-0.62,0.15-0.93c0-0.33-0.05-0.66-0.15-0.97s-0.25-0.59-0.46-0.83
		c-0.2-0.24-0.44-0.43-0.71-0.57c-0.28-0.14-0.58-0.21-0.93-0.21c-0.36,0-0.68,0.07-0.96,0.22c-0.28,0.15-0.52,0.34-0.71,0.59
		s-0.34,0.52-0.44,0.83S16.85,39.54,16.85,39.86z"/>
	<path class="st0" d="M34.17,37.98c-0.07-0.07-0.16-0.15-0.29-0.23c-0.13-0.08-0.28-0.16-0.45-0.23c-0.17-0.07-0.36-0.13-0.56-0.18
		s-0.41-0.07-0.62-0.07c-0.47,0-0.81,0.09-1.04,0.26s-0.34,0.41-0.34,0.72c0,0.23,0.06,0.4,0.19,0.53c0.13,0.13,0.32,0.24,0.58,0.32
		c0.26,0.09,0.59,0.18,0.98,0.28c0.48,0.11,0.9,0.25,1.25,0.4c0.35,0.16,0.62,0.36,0.81,0.62c0.19,0.26,0.28,0.6,0.28,1.03
		c0,0.36-0.07,0.67-0.2,0.93c-0.13,0.26-0.32,0.47-0.56,0.63s-0.52,0.28-0.83,0.36s-0.65,0.11-1.01,0.11s-0.71-0.04-1.06-0.11
		s-0.68-0.18-1-0.33c-0.32-0.14-0.61-0.32-0.88-0.53l0.51-0.96c0.09,0.09,0.21,0.18,0.38,0.29c0.16,0.1,0.35,0.2,0.57,0.29
		s0.45,0.17,0.71,0.24c0.26,0.06,0.52,0.09,0.79,0.09c0.45,0,0.79-0.08,1.03-0.23c0.24-0.16,0.35-0.38,0.35-0.67
		c0-0.24-0.08-0.43-0.23-0.57s-0.38-0.26-0.67-0.36c-0.29-0.1-0.64-0.2-1.05-0.3c-0.47-0.13-0.86-0.26-1.17-0.41
		s-0.55-0.34-0.71-0.58s-0.24-0.54-0.24-0.9c0-0.47,0.11-0.86,0.34-1.18s0.54-0.56,0.92-0.73c0.39-0.16,0.83-0.24,1.32-0.24
		c0.32,0,0.62,0.03,0.91,0.1s0.55,0.17,0.8,0.29c0.25,0.12,0.48,0.26,0.68,0.41l-0.51,0.92L34.17,37.98z"/>
	<path class="st0" d="M47.25,42.42v0.99h-4.87v-7.1h4.78v0.99H43.5v2.02h3.17v0.93H43.5v2.17C43.5,42.42,47.25,42.42,47.25,42.42z
		 M45.26,35.57l-0.72-0.22l0.57-1.1h1.05C46.16,34.25,45.26,35.57,45.26,35.57z"/>
	<path class="st0" d="M69.45,43.41v-5.06l-2.09,3.84H66.7l-2.1-3.84v5.06h-1.12v-7.1h1.2l2.35,4.34l2.35-4.34h1.2v7.1H69.45z"/>
	<path class="st0" d="M80.53,36.31h1.06l2.76,7.1h-1.18l-0.69-1.93h-2.84l-0.7,1.93h-1.19L80.53,36.31z M82.18,40.65l-1.12-3.11
		l-1.12,3.11C79.94,40.65,82.18,40.65,82.18,40.65z"/>
	<path class="st0" d="M92.65,38.39v5.02h-1.12v-7.1h0.92l4.02,5.13v-5.12h1.13v7.09h-0.98L92.65,38.39L92.65,38.39z"/>
	<path class="st0" d="M108.46,43.46c-0.57,0-1.04-0.1-1.43-0.29s-0.7-0.46-0.94-0.79c-0.24-0.33-0.41-0.71-0.52-1.14
		s-0.17-0.87-0.17-1.33v-3.6h1.12v3.6c0,0.33,0.03,0.64,0.1,0.94s0.17,0.57,0.32,0.81s0.34,0.43,0.59,0.57s0.56,0.21,0.92,0.21
		s0.69-0.07,0.94-0.21s0.45-0.34,0.59-0.58s0.25-0.51,0.32-0.81c0.07-0.3,0.1-0.61,0.1-0.93v-3.6h1.13v3.6
		c0,0.49-0.06,0.94-0.17,1.38c-0.12,0.43-0.3,0.81-0.54,1.13s-0.56,0.58-0.95,0.76C109.48,43.37,109.01,43.46,108.46,43.46z"/>
	<path class="st0" d="M124.19,42.42v0.99h-4.87v-7.1h4.78v0.99h-3.66v2.02h3.17v0.93h-3.17v2.17
		C120.44,42.42,124.19,42.42,124.19,42.42z"/>
	<path class="st0" d="M131.65,43.41v-7.1h1.12v6.11h3.81v0.99C136.58,43.41,131.65,43.41,131.65,43.41z"/>
	<path class="st0" d="M151.81,39.8c0-0.43,0.08-0.86,0.23-1.27c0.15-0.42,0.38-0.8,0.67-1.14s0.66-0.62,1.08-0.82
		c0.43-0.2,0.91-0.3,1.45-0.3c0.64,0,1.19,0.15,1.66,0.44s0.81,0.66,1.04,1.11l-0.88,0.59c-0.13-0.29-0.3-0.51-0.5-0.68
		c-0.2-0.17-0.42-0.28-0.66-0.35s-0.47-0.1-0.7-0.1c-0.37,0-0.7,0.08-0.98,0.23c-0.28,0.15-0.51,0.35-0.7,0.6s-0.33,0.52-0.43,0.83
		c-0.1,0.31-0.14,0.61-0.14,0.92c0,0.34,0.06,0.67,0.17,0.98c0.11,0.32,0.27,0.6,0.47,0.84s0.45,0.44,0.73,0.58
		c0.28,0.14,0.59,0.21,0.92,0.21c0.23,0,0.46-0.04,0.71-0.12c0.25-0.08,0.47-0.21,0.68-0.38s0.38-0.39,0.5-0.67l0.93,0.53
		c-0.15,0.35-0.38,0.65-0.68,0.9c-0.31,0.25-0.66,0.43-1.04,0.56c-0.38,0.13-0.76,0.19-1.13,0.19c-0.5,0-0.96-0.1-1.37-0.31
		s-0.77-0.49-1.07-0.84s-0.53-0.74-0.7-1.18s-0.25-0.88-0.25-1.32L151.81,39.8z"/>
	<path class="st0" d="M167.35,36.31h1.06l2.76,7.1h-1.18l-0.69-1.93h-2.84l-0.7,1.93h-1.19L167.35,36.31z M169,40.65l-1.12-3.11
		l-1.12,3.11H169L169,40.65z"/>
	<path class="st0" d="M178.35,43.41v-7.1h3.09c0.32,0,0.61,0.07,0.88,0.2s0.5,0.31,0.7,0.53c0.2,0.22,0.35,0.47,0.46,0.74
		s0.17,0.55,0.17,0.84c0,0.31-0.06,0.61-0.17,0.9s-0.28,0.53-0.49,0.74s-0.45,0.36-0.73,0.45l1.67,2.7h-1.26l-1.54-2.47h-1.65v2.47
		h-1.12L178.35,43.41z M179.47,39.95h1.96c0.21,0,0.39-0.06,0.55-0.18s0.29-0.28,0.38-0.48c0.09-0.2,0.14-0.42,0.14-0.67
		s-0.05-0.47-0.16-0.67c-0.11-0.2-0.25-0.35-0.42-0.48c-0.17-0.12-0.36-0.18-0.55-0.18h-1.9L179.47,39.95L179.47,39.95z"/>
	<path class="st0" d="M196.4,37.3h-2.36v6.11h-1.13V37.3h-2.37v-0.99h5.86V37.3z"/>
	<path class="st0" d="M208.52,42.42v0.99h-4.87v-7.1h4.78v0.99h-3.66v2.02h3.17v0.93h-3.17v2.17
		C204.77,42.42,208.52,42.42,208.52,42.42z"/>
	<path class="st0" d="M220.18,37.98c-0.07-0.07-0.16-0.15-0.29-0.23c-0.13-0.08-0.28-0.16-0.45-0.23s-0.36-0.13-0.56-0.18
		s-0.41-0.07-0.62-0.07c-0.47,0-0.81,0.09-1.04,0.26s-0.34,0.41-0.34,0.72c0,0.23,0.06,0.4,0.19,0.53c0.13,0.13,0.32,0.24,0.58,0.32
		c0.26,0.09,0.59,0.18,0.98,0.28c0.48,0.11,0.9,0.25,1.25,0.4c0.35,0.16,0.62,0.36,0.81,0.62s0.28,0.6,0.28,1.03
		c0,0.36-0.07,0.67-0.2,0.93c-0.13,0.26-0.32,0.47-0.56,0.63c-0.24,0.16-0.52,0.28-0.83,0.36s-0.65,0.11-1.01,0.11
		s-0.71-0.04-1.06-0.11c-0.35-0.07-0.68-0.18-1-0.33s-0.61-0.32-0.88-0.53l0.51-0.96c0.09,0.09,0.21,0.18,0.38,0.29
		c0.16,0.1,0.35,0.2,0.57,0.29s0.45,0.17,0.71,0.24s0.52,0.09,0.79,0.09c0.45,0,0.79-0.08,1.03-0.23c0.24-0.16,0.35-0.38,0.35-0.67
		c0-0.24-0.08-0.43-0.23-0.57s-0.38-0.26-0.67-0.36c-0.29-0.1-0.64-0.2-1.05-0.3c-0.47-0.13-0.86-0.26-1.17-0.41
		s-0.55-0.34-0.71-0.58s-0.23-0.54-0.23-0.9c0-0.47,0.11-0.86,0.34-1.18s0.54-0.56,0.92-0.73c0.39-0.16,0.83-0.24,1.32-0.24
		c0.32,0,0.62,0.03,0.91,0.1c0.29,0.07,0.56,0.17,0.81,0.29c0.25,0.12,0.48,0.26,0.68,0.41L220.18,37.98L220.18,37.98z"/>
</g>
</svg>
