<?xml version="1.0" encoding="utf-8"?>
<!-- Generator: Adobe Illustrator 27.3.1, SVG Export Plug-In . SVG Version: 6.00 Build 0)  -->
<svg version="1.1" id="uuid-7ff7d905-6221-4bcf-bbc1-1b38075a0948"
	 xmlns="http://www.w3.org/2000/svg" xmlns:xlink="http://www.w3.org/1999/xlink" x="0px" y="0px" viewBox="0 0 283.5 283.5"
	 style="enable-background:new 0 0 283.5 283.5;" xml:space="preserve">
<style type="text/css">
	.st0{fill:#F23540;}
</style>
<g id="uuid-962ce1a1-4f6d-4a69-a148-3bc2b6512d20">
	<path id="uuid-d7723903-b876-4e60-9e32-5c63299c8c70" class="st0" d="M155.2,225.3h-29.1c-3.2,0-5.8,2.6-5.8,5.7s2.6,5.7,5.8,5.7
		h29.1c3.2,0,5.8-2.6,5.8-5.7S158.4,225.3,155.2,225.3"/>
</g>
<g id="uuid-e0c4f798-07a5-4c56-8418-f8a5bcb6a7e9">
	<path id="uuid-af617e21-acef-43cf-b7c4-43a20726d1d4" class="st0" d="M141.7,46.8C86,46.8,40.6,91.2,40.6,145.7
		c0,16.7,4.3,33.2,12.5,47.7c1.5,2.8,5.1,3.8,7.9,2.2c2.8-1.5,3.8-5,2.3-7.7c-7.2-12.8-11.1-27.4-11.1-42.2
		c0-48.3,40.1-87.5,89.4-87.5s89.4,39.3,89.4,87.5c0,14.9-3.9,29.7-11.3,42.6c-1.6,2.8-0.6,6.2,2.2,7.8c0.9,0.5,1.9,0.7,2.8,0.7
		c2.1,0,4-1.1,5.1-2.9c8.3-14.6,12.7-31.3,12.7-48.2C242.8,91.1,197.5,46.8,141.7,46.8"/>
</g>
<g id="uuid-63f84539-7d97-4cf5-85a6-392bfda3223e">
	<path id="uuid-502b760a-999d-4a86-9313-350866eceae0" class="st0" d="M195.5,112.4c-2.9-13.2-7.1-21.5-12.3-24.9
		c-3.5-2-7.2-3.2-17.6-4.7c-6.7-0.9-14.7-5.7-24.4-5.7s-18,5.2-24.7,6.1c-10.2,1.4-13.8,2.3-17.4,4.3C94,90.9,89.9,99.3,87,112.4
		c-3.3,13.9-8.2,35.4-8.2,63.9c0,3.9,0.1,7.9,0.3,12.1v0.1l4.3,15.1c0.3,3.7,0.8,7.2,1.1,9.6c0.5,3.1,2.9,5.3,6,5.3h8.3l-1.7,2.9
		c-1.9,3.4-0.7,7.8,2.8,9.7c1.1,0.6,2.3,0.9,3.5,0.9c0.7,0,1.3-0.1,2-0.3c1.9-0.5,3.4-1.8,4.4-3.4l5.6-9.8h52.3l5.2,9.8
		c0.9,1.7,2.5,2.9,4.4,3.4c1.9,0.5,3.8,0.3,5.5-0.6c3.5-1.9,4.7-6.2,2.9-9.6l-1.6-3h7.8c3.1,0,5.6-2.2,6-5.2
		c0.4-2.6,0.9-6.6,1.3-11.1l4.2-15.2c0.1-3.8,0.2-7.2,0.2-10.6C203.7,147.9,198.8,126.4,195.5,112.4 M128.4,87.3h25.6
		c2.8,0,5,2.2,5,4.9s-2.2,4.9-5,4.9h-25.6c-2.8,0-5-2.2-5-4.9S125.7,87.3,128.4,87.3 M115.3,203.9c-4.3,0-7.8-3.3-7.8-7.4
		s3.5-7.4,7.8-7.4s7.8,3.3,7.8,7.4S119.6,203.9,115.3,203.9 M168.1,203.9c-4.3,0-7.8-3.3-7.8-7.4s3.5-7.4,7.8-7.4s7.8,3.3,7.8,7.4
		S172.4,203.9,168.1,203.9 M188.6,152.9c-5.1,1.4-26.2,5.8-47.4,5.8s-42.5-4.7-47.5-5.9c-0.7-0.2-0.5-0.8-0.5-0.8
		c2-14.7,4.3-23.6,5.5-32.6c1.2-8.2,5.2-11.3,11.5-11.3h61.9c6.4,0,10.4,3.1,11.5,11.3c1.2,9,3.5,17.9,5.5,32.6
		C189.2,151.9,189.4,152.7,188.6,152.9"/>
</g>
</svg>
