<?xml version="1.0" encoding="UTF-8"?>
<svg id="uuid-7ff7d905-6221-4bcf-bbc1-1b38075a0948" data-name="Capa 1" xmlns="http://www.w3.org/2000/svg" viewBox="0 0 283.46 283.46">
  <defs>
    <style>
      .uuid-3b84f0d2-d587-438e-822b-4b976ab61107 {
        fill: #cb122d;
      }
    </style>
  </defs>
  <g id="uuid-962ce1a1-4f6d-4a69-a148-3bc2b6512d20" data-name="g5632">
    <path id="uuid-d7723903-b876-4e60-9e32-5c63299c8c70" data-name="path5634" class="uuid-3b84f0d2-d587-438e-822b-4b976ab61107" d="m155.2,225.3h-29.09c-3.22,0-5.83,2.55-5.83,5.69s2.61,5.71,5.83,5.71h29.09c3.2,0,5.81-2.55,5.81-5.71s-2.61-5.69-5.81-5.69"/>
  </g>
  <g id="uuid-e0c4f798-07a5-4c56-8418-f8a5bcb6a7e9" data-name="g5636">
    <path id="uuid-af617e21-acef-43cf-b7c4-43a20726d1d4" data-name="path5638" class="uuid-3b84f0d2-d587-438e-822b-4b976ab61107" d="m141.73,46.77c-55.74,0-101.09,44.38-101.09,98.94,0,16.68,4.32,33.19,12.51,47.71,1.54,2.76,5.08,3.77,7.9,2.24,2.82-1.52,3.84-4.98,2.3-7.74-7.24-12.84-11.06-27.43-11.06-42.21,0-48.26,40.12-87.54,89.45-87.54s89.45,39.28,89.45,87.54c0,14.93-3.9,29.66-11.27,42.59-1.56,2.76-.56,6.22,2.24,7.76.91.49,1.87.72,2.84.72,2.05,0,4.02-1.05,5.1-2.93,8.34-14.63,12.74-31.27,12.74-48.15,0-54.56-45.35-98.94-101.09-98.94"/>
  </g>
  <g id="uuid-63f84539-7d97-4cf5-85a6-392bfda3223e" data-name="g5652">
    <path id="uuid-502b760a-999d-4a86-9313-350866eceae0" data-name="path5654" class="uuid-3b84f0d2-d587-438e-822b-4b976ab61107" d="m195.52,112.45c-2.95-13.18-7.05-21.51-12.3-24.86-3.51-2.04-7.24-3.21-17.61-4.66-6.68-.91-14.71-5.74-24.38-5.74s-17.99,5.19-24.71,6.14c-10.25,1.45-13.82,2.26-17.4,4.34-5.14,3.27-9.23,11.6-12.16,24.77-3.26,13.92-8.15,35.42-8.15,63.86,0,3.88.08,7.95.27,12.12v.08l4.27,15.05c.35,3.73.77,7.25,1.14,9.63.48,3.1,2.95,5.27,6.04,5.27h8.28l-1.68,2.89c-1.93,3.44-.68,7.78,2.82,9.68,1.08.59,2.26.89,3.46.89.68,0,1.35-.1,2.01-.29,1.87-.51,3.44-1.75,4.38-3.41l5.58-9.78h52.34l5.23,9.76c.95,1.67,2.51,2.89,4.38,3.42,1.85.53,3.8.32,5.48-.61,3.48-1.9,4.73-6.24,2.86-9.61l-1.56-2.97h7.84c3.11,0,5.6-2.19,6.02-5.25.41-2.63.89-6.64,1.27-11.09l4.21-15.22c.15-3.77.21-7.25.21-10.58,0-28.34-4.88-49.84-8.15-63.84m-67.07-25.13h25.62c2.76,0,5,2.21,5,4.93s-2.24,4.95-5,4.95h-25.62c-2.78,0-5.02-2.21-5.02-4.95s2.24-4.93,5.02-4.93m-13.13,116.61c-4.32,0-7.82-3.31-7.82-7.4s3.49-7.38,7.82-7.38,7.82,3.31,7.82,7.38-3.49,7.4-7.82,7.4m52.82,0c-4.32,0-7.82-3.31-7.82-7.4s3.49-7.38,7.82-7.38,7.82,3.31,7.82,7.38-3.51,7.4-7.82,7.4m20.46-51c-5.08,1.35-26.2,5.76-47.36,5.76s-42.53-4.68-47.49-5.95c-.7-.19-.48-.82-.48-.82,2.01-14.69,4.27-23.55,5.52-32.57,1.16-8.22,5.15-11.32,11.51-11.32h61.9c6.35,0,10.37,3.1,11.51,11.32,1.25,9.02,3.51,17.88,5.54,32.57,0,0,.14.82-.64,1.01"/>
  </g>
</svg>