<?xml version="1.0" encoding="UTF-8"?>
<svg id="uuid-9e56a4ba-23a0-4882-a581-36d7954225f0" data-name="Capa 1" xmlns="http://www.w3.org/2000/svg" viewBox="0 0 283.46 283.46">
  <defs>
    <style>
      .uuid-8ef10bdd-dba3-4737-b275-f2fbdf136fab {
        fill: #cb122d;
      }
    </style>
  </defs>
  <g id="uuid-ab4b9a53-4823-4762-9a14-d45d11ae1d3b" data-name="g5640">
    <path id="uuid-9cfcc056-24b6-430f-92b8-f557482da764" data-name="path5642" class="uuid-8ef10bdd-dba3-4737-b275-f2fbdf136fab" d="m101.39,223.63c0,2.32-2.1,4.39-4.21,4.39h-12.39c-2.36,0-4.21-2.07-4.21-4.39v-13.14h-3.44c-1.83,0-3.15-1.29-3.42-3.1-1.04-6.7-2.9-23.99-2.9-43.6,0-29.92,1.56-57.52,5.79-75.6,3.15-14.19,7.65-23.97,12.92-27.34,4.48-2.59,17.12-5.42,52.19-5.42s47.73,2.83,52.2,5.42c5.25,3.37,9.73,13.14,12.9,27.34,4.21,18.07,5.81,45.67,5.81,75.6,0,19.61-1.85,36.9-2.92,43.6-.25,1.81-1.56,3.1-3.42,3.1h-3.42v13.14c0,2.32-1.87,4.39-4.23,4.39h-12.38c-2.1,0-4.23-2.07-4.23-4.39v-13.14h-80.66v13.14Zm96.47-61.14c.54-1.03,1.31-7.72,1.31-13.92,0-21.67-2.36-53.66-5.52-60.62-1.33-2.59-16.87-4.91-51.93-4.91s-50.6,2.32-51.93,4.91c-3.17,6.96-5.52,38.96-5.52,60.62,0,6.2.79,12.9,1.31,13.92,1.58,2.85,26.89,5.42,56.14,5.42s54.56-2.57,56.14-5.42m-103.06,34.56c5,0,9.23-4.11,9.23-9.02s-4.23-9.04-9.23-9.04-9.23,4.13-9.23,9.04,4.21,9.02,9.23,9.02m96.47-120.98c-.79-2.34-2.1-5.67-5-7.48-2.9-1.81-13.19-3.61-44.56-3.61s-41.64,1.81-44.54,3.61c-2.9,1.81-4.23,5.14-5,7.48,7.1-2.07,23.19-3.35,49.54-3.35s42.45,1.27,49.56,3.35m-1.83,102.93c-5.02,0-9.23,4.13-9.23,9.04s4.21,9.02,9.23,9.02,9.21-4.11,9.21-9.02-4.21-9.04-9.21-9.04"/>
  </g>
</svg>