<?xml version="1.0" encoding="utf-8"?>
<!-- Generator: Adobe Illustrator 27.3.1, SVG Export Plug-In . SVG Version: 6.00 Build 0)  -->
<svg version="1.1" id="uuid-9e56a4ba-23a0-4882-a581-36d7954225f0"
	 xmlns="http://www.w3.org/2000/svg" xmlns:xlink="http://www.w3.org/1999/xlink" x="0px" y="0px" viewBox="0 0 283.5 283.5"
	 style="enable-background:new 0 0 283.5 283.5;" xml:space="preserve">
<style type="text/css">
	.st0{fill:#F23540;}
</style>
<g id="uuid-ab4b9a53-4823-4762-9a14-d45d11ae1d3b">
	<path id="uuid-9cfcc056-24b6-430f-92b8-f557482da764" class="st0" d="M101.4,223.6c0,2.3-2.1,4.4-4.2,4.4H84.8
		c-2.4,0-4.2-2.1-4.2-4.4v-13.1h-3.4c-1.8,0-3.2-1.3-3.4-3.1c-1-6.7-2.9-24-2.9-43.6c0-29.9,1.6-57.5,5.8-75.6
		c3.2-14.2,7.7-24,12.9-27.3c4.5-2.6,17.1-5.4,52.2-5.4s47.7,2.8,52.2,5.4c5.2,3.4,9.7,13.1,12.9,27.3c4.2,18.1,5.8,45.7,5.8,75.6
		c0,19.6-1.9,36.9-2.9,43.6c-0.2,1.8-1.6,3.1-3.4,3.1h-3.4v13.1c0,2.3-1.9,4.4-4.2,4.4h-12.4c-2.1,0-4.2-2.1-4.2-4.4v-13.1h-80.7
		L101.4,223.6L101.4,223.6z M197.9,162.5c0.5-1,1.3-7.7,1.3-13.9c0-21.7-2.4-53.7-5.5-60.6c-1.3-2.6-16.9-4.9-51.9-4.9
		S91.1,85.4,89.8,88c-3.2,7-5.5,39-5.5,60.6c0,6.2,0.8,12.9,1.3,13.9c1.6,2.9,26.9,5.4,56.1,5.4S196.3,165.3,197.9,162.5
		 M94.8,197.1c5,0,9.2-4.1,9.2-9s-4.2-9-9.2-9s-9.2,4.1-9.2,9S89.8,197.1,94.8,197.1 M191.3,76.1c-0.8-2.3-2.1-5.7-5-7.5
		c-2.9-1.8-13.2-3.6-44.6-3.6s-41.6,1.8-44.5,3.6c-2.9,1.8-4.2,5.1-5,7.5c7.1-2.1,23.2-3.3,49.5-3.3S184.2,74,191.3,76.1 M189.4,179
		c-5,0-9.2,4.1-9.2,9s4.2,9,9.2,9s9.2-4.1,9.2-9S194.4,179,189.4,179"/>
</g>
</svg>
