<?xml version="1.0" encoding="utf-8"?>
<!-- Generator: Adobe Illustrator 27.3.1, SVG Export Plug-In . SVG Version: 6.00 Build 0)  -->
<svg version="1.1" id="uuid-8cf22450-fc48-40ec-8fe3-29e87b9ed4ac"
	 xmlns="http://www.w3.org/2000/svg" xmlns:xlink="http://www.w3.org/1999/xlink" x="0px" y="0px" viewBox="0 0 283.5 283.5"
	 style="enable-background:new 0 0 283.5 283.5;" xml:space="preserve">
<style type="text/css">
	.st0{fill:#F4F4F4;}
	.st1{fill:none;}
	.st2{fill:#41B6E6;}
	.st3{fill:#EFBE7D;}
	.st4{fill:#426DA9;}
</style>
<rect y="0" class="st0" width="283.5" height="283.5"/>
<path class="st1" d="M113.4,170.1h85v-85h-85V170.1z M124.9,150.2l11.9-15.6c0.7-1,1.6-1.4,2.8-1.4c1.2,0,2.1,0.5,2.8,1.4l8.2,10.6
	h0l13.5-17.5c0.7-0.9,1.6-1.4,2.8-1.4c1.2,0,2.1,0.5,2.8,1.4l17.2,22.5c0.9,1.2,1.1,2.4,0.4,3.7c-0.6,1.3-1.7,2-3.3,2h-56.3
	c-1.5,0-2.6-0.7-3.3-2C123.8,152.7,124,151.4,124.9,150.2z"/>
<path class="st2" d="M177.2,198.4H85v-92.1c0-2-0.7-3.7-2-5.1c-1.4-1.4-3-2-5-2s-3.7,0.7-5.1,2c-1.4,1.4-2,3-2,5.1v92.1
	c0,3.9,1.4,7.2,4.2,10c2.8,2.8,6.1,4.2,10,4.2l0,0h92.1c2,0,3.7-0.7,5-2c1.4-1.4,2-3,2-5s-0.7-3.7-2-5
	C180.9,199.1,179.2,198.4,177.2,198.4z"/>
<path class="st3" d="M127.8,155.9h56.3c1.5,0,2.6-0.7,3.3-2c0.7-1.3,0.5-2.5-0.4-3.7l-17.2-22.5c-0.7-0.9-1.6-1.4-2.8-1.4
	c-1.2,0-2.1,0.5-2.8,1.4l-13.5,17.5h0l-8.2-10.6c-0.7-0.9-1.6-1.4-2.8-1.4c-1.2,0-2.1,0.5-2.8,1.4l-11.9,15.6
	c-0.9,1.2-1.1,2.4-0.4,3.7C125.1,155.3,126.2,155.9,127.8,155.9z"/>
<path class="st4" d="M208.4,75c-2.8-2.8-6.1-4.2-10-4.2h-85c-3.9,0-7.2,1.4-10,4.2c-2.8,2.8-4.2,6.1-4.2,10v85c0,3.9,1.4,7.2,4.2,10
	c2.8,2.8,6.1,4.2,10,4.2h85c3.9,0,7.2-1.4,10-4.2c2.8-2.8,4.2-6.1,4.2-10v-85C212.6,81.1,211.2,77.8,208.4,75z M198.4,170.1h-85v-85
	h85V170.1z"/>
</svg>
